<svg width="204" height="110" viewBox="0 0 204 110" fill="none" xmlns="http://www.w3.org/2000/svg">
<path d="M22.7 56.55C21.7667 56.7833 20.5833 56.9833 19.15 57.15C17.7167 57.3167 16.3667 57.4 15.1 57.4C11.3333 57.4 8.55 56.8833 6.75 55.85C4.98333 54.7833 3.8 53.05 3.2 50.65C2.63333 48.25 2.35 44.6333 2.35 39.8C2.35 35.0333 2.65 31.45 3.25 29.05C3.85 26.6167 5.03333 24.8667 6.8 23.8C8.6 22.7333 11.3667 22.2 15.1 22.2C16.4 22.2 17.7333 22.2833 19.1 22.45C20.5 22.6167 21.65 22.8333 22.55 23.1V29.1C19.7167 28.8 17.8333 28.65 16.9 28.65C14.6333 28.65 13.0667 28.8833 12.2 29.35C11.3667 29.7833 10.8333 30.7 10.6 32.1C10.3667 33.4667 10.25 36.0333 10.25 39.8C10.25 43.5667 10.3667 46.15 10.6 47.55C10.8333 48.9167 11.3667 49.8333 12.2 50.3C13.0667 50.7333 14.6333 50.95 16.9 50.95C18.8333 50.95 20.7667 50.8 22.7 50.5V56.55ZM27.7117 57V22.6H35.4617V50.3H46.8617V57H27.7117ZM63.1027 57.4C58.9361 57.4 55.9527 56.9 54.1527 55.9C52.3861 54.8667 51.2694 53.2333 50.8027 51C50.3694 48.7333 50.1527 45 50.1527 39.8C50.1527 34.6 50.3694 30.8833 50.8027 28.65C51.2694 26.3833 52.3861 24.75 54.1527 23.75C55.9527 22.7167 58.9361 22.2 63.1027 22.2C67.3027 22.2 70.2861 22.7167 72.0527 23.75C73.8527 24.75 74.9694 26.3667 75.4027 28.6C75.8361 30.8333 76.0527 34.5667 76.0527 39.8C76.0527 45.0333 75.8361 48.7667 75.4027 51C74.9694 53.2333 73.8527 54.8667 72.0527 55.9C70.2861 56.9 67.3027 57.4 63.1027 57.4ZM63.1027 50.95C64.9027 50.95 66.1027 50.7667 66.7027 50.4C67.3361 50.0333 67.7361 49.1667 67.9027 47.8C68.0694 46.4333 68.1527 43.7667 68.1527 39.8C68.1527 35.8333 68.0694 33.1667 67.9027 31.8C67.7361 30.4333 67.3361 29.5667 66.7027 29.2C66.1027 28.8333 64.9027 28.65 63.1027 28.65C61.3027 28.65 60.0861 28.8333 59.4527 29.2C58.8527 29.5667 58.4694 30.4333 58.3027 31.8C58.1361 33.1667 58.0527 35.8333 58.0527 39.8C58.0527 43.7667 58.1361 46.4333 58.3027 47.8C58.4694 49.1667 58.8527 50.0333 59.4527 50.4C60.0861 50.7667 61.3027 50.95 63.1027 50.95ZM99.318 57L89.218 37.35H88.968V57H81.518V22.6H89.368L98.818 40.65H99.068V22.6H106.518V57H99.318ZM112.819 57V22.6H133.519V29.05H120.569V36.4H131.669V42.85H120.569V50.55H133.519V57H112.819ZM160.529 57.4C156.362 57.4 152.679 57.1167 149.479 56.55V50.45C153.612 50.7833 156.545 50.95 158.279 50.95C159.645 50.95 160.712 50.8833 161.479 50.75C162.245 50.6167 162.795 50.3833 163.129 50.05C163.429 49.75 163.612 49.3833 163.679 48.95C163.779 48.5167 163.829 47.9 163.829 47.1C163.829 46.0333 163.762 45.2833 163.629 44.85C163.495 44.3833 163.212 44.05 162.779 43.85C162.379 43.65 161.679 43.4667 160.679 43.3L155.129 42.5C152.595 42.1333 150.879 41.15 149.979 39.55C149.079 37.95 148.629 35.65 148.629 32.65C148.629 29.75 149.112 27.5333 150.079 26C151.045 24.4667 152.362 23.45 154.029 22.95C155.695 22.45 157.812 22.2 160.379 22.2C163.545 22.2 166.795 22.5333 170.129 23.2V29.2C167.129 28.8333 164.462 28.65 162.129 28.65C159.662 28.65 158.079 28.8833 157.379 29.35C156.979 29.5833 156.729 29.9167 156.629 30.35C156.529 30.75 156.479 31.3833 156.479 32.25C156.479 33.2167 156.529 33.9 156.629 34.3C156.729 34.7 156.945 35 157.279 35.2C157.645 35.3667 158.262 35.5167 159.129 35.65L165.079 36.5C166.412 36.7 167.512 37.0333 168.379 37.5C169.279 37.9667 170.012 38.7667 170.579 39.9C171.279 41.3667 171.629 43.4667 171.629 46.2C171.629 49.4 171.179 51.8167 170.279 53.45C169.379 55.0833 168.145 56.15 166.579 56.65C165.045 57.15 163.029 57.4 160.529 57.4ZM194.184 57L188.584 45.5H188.184L182.584 57H174.234L183.484 39.7L174.384 22.6H183.034L188.434 33.75H188.834L194.334 22.6H202.734L193.634 39.55L202.834 57H194.184Z" fill="url(#paint0_linear_261_839)"/>
<path d="M60.4 92L59 86.48H50.88L49.56 92H43.32L50.68 64.48H59.4L66.72 92H60.4ZM55.04 70.08H54.8L52.12 81.36H57.76L55.04 70.08ZM69.6225 64.48H78.2625C81.7292 64.48 84.1958 64.88 85.6625 65.68C87.1558 66.48 88.0758 67.76 88.4225 69.52C88.7958 71.28 88.9825 74.1867 88.9825 78.24C88.9825 82.2933 88.7958 85.2 88.4225 86.96C88.0758 88.72 87.1558 90 85.6625 90.8C84.1958 91.6 81.7292 92 78.2625 92H69.6225V64.48ZM78.1025 86.84C79.7558 86.84 80.8625 86.7067 81.4225 86.44C81.9825 86.1733 82.3292 85.52 82.4625 84.48C82.6225 83.4133 82.7025 81.3333 82.7025 78.24C82.7025 75.1467 82.6225 73.08 82.4625 72.04C82.3025 70.9733 81.9425 70.3067 81.3825 70.04C80.8492 69.7733 79.7558 69.64 78.1025 69.64H75.8225V86.84H78.1025ZM114.611 92V72.96H114.331L109.331 92H104.451L99.4906 72.96H99.2106V92H93.3706V64.48H102.291L106.891 82.12H107.171L111.771 64.48H120.611V92H114.611ZM125.598 92V64.48H131.838V92H125.598ZM151.048 92L142.968 76.28H142.768V92H136.808V64.48H143.088L150.648 78.92H150.848V64.48H156.808V92H151.048Z" fill="url(#paint1_linear_261_839)"/>
<defs>
<linearGradient id="paint0_linear_261_839" x1="0" y1="39.5" x2="204" y2="39.5" gradientUnits="userSpaceOnUse">
<stop stop-color="#D350F2"/>
<stop offset="1" stop-color="#AB66FF"/>
</linearGradient>
<linearGradient id="paint1_linear_261_839" x1="43" y1="78.5" x2="160" y2="78.5" gradientUnits="userSpaceOnUse">
<stop stop-color="#D350F2"/>
<stop offset="1" stop-color="#AB66FF"/>
</linearGradient>
</defs>
</svg>
